<svg width="24" height="24" viewBox="0 0 24 24" fill="none" xmlns="http://www.w3.org/2000/svg">
<rect width="24" height="24" rx="12" fill="#2496FF"/>
<path d="M11.9967 18C12.4806 18 12.8141 17.6787 12.8141 17.2V9.73543L12.7552 8.3685L14.305 10.0567L15.7828 11.4677C15.9332 11.6063 16.1293 11.7008 16.3647 11.7008C16.8094 11.7008 17.1429 11.3858 17.1429 10.9449C17.1429 10.737 17.0579 10.5417 16.8878 10.378L12.6049 6.24567C12.4479 6.08819 12.2191 6 11.9967 6C11.7744 6 11.5521 6.08819 11.3952 6.24567L7.11216 10.378C6.94215 10.5417 6.85715 10.737 6.85715 10.9449C6.85715 11.3858 7.19063 11.7008 7.63528 11.7008C7.87068 11.7008 8.06685 11.6063 8.21724 11.4677L9.6885 10.0567L11.2382 8.3685L11.1859 9.73543V17.2C11.1859 17.6787 11.5129 18 11.9967 18Z" fill="white"/>
</svg>
